<?xml version="1.0" encoding="iso-8859-1"?>
<!-- Uploaded to: SVG Repo, www.svgrepo.com, Generator: SVG Repo Mixer Tools -->
<svg version="1.1" id="Layer_1" xmlns="http://www.w3.org/2000/svg" xmlns:xlink="http://www.w3.org/1999/xlink" 
	 viewBox="0 0 508 508" xml:space="preserve" width="300px">
<path style="fill:#666666;" d="M20.197,28v450.8c0,12.8,10.4,23.2,22.4,23.2h253.6c-12.8-6.4-22-20.4-22-35.6V434h-242h-2v-2V78v-2
	c0-1.2,0.8-2,2-2h320c1.2,0,2,0.8,2,2v66h13.6V27.2c0-12-9.6-21.2-22.4-21.2h-303.2C30.197,6,20.197,15.6,20.197,28z"/>
<path style="fill:#CDEEF9;" d="M30.197,74v360h240V178c0-20,22-32,43.6-32h32.4V74H30.197z"/>
<path style="fill:#CC9999;" d="M30.197,432v2h2C30.997,434,30.197,433.2,30.197,432z"/>
<path style="fill:#F4EFEF;" d="M454.197,146h-140.4c-19.6,0-35.6,14.4-35.6,32v240.4v48c0,18.4,15.2,34.8,32.8,35.6
	c0.4,0,142.4,0,142.4,0c17.6,0,32.8-16.4,32.8-36V178.8C486.197,160,472.597,146,454.197,146z M470.197,444c0,1.2-0.8,2-2,2h-2h-170
	h-2v-2v-88V204c0-1.2,0.8-2,2-2h172c1.2,0,2,0.8,2,2V444z"/>
<path style="fill:#CC9999;" d="M294.197,444v2h2C294.997,446,294.197,445.2,294.197,444z"/>
<rect x="294.197" y="202" style="fill:#CDEEF9;" width="168" height="244"/>
<path style="fill:#999999;" d="M192.597,484.4c10,0,18-8,18-18s-8-18-18-18s-18,8-18,18S182.597,484.4,192.597,484.4z"/>
<path style="fill:#AEB1B4;" d="M384.197,456.4c-8.8,0-16,7.2-16,16s7.2,16,16,16s16-7.2,16-16S392.997,456.4,384.197,456.4z"/>
<path d="M274.197,436h-238c-2.4,0-4-1.6-4-4V72c0-2.4,1.6-4,4-4h262c2.4,0,4,1.6,4,4s-1.6,4-4,4h-258v352h234c2.4,0,4,1.6,4,4
	S276.597,436,274.197,436z"/>
<path d="M352.197,146c-2.4,0-4-1.6-4-4V76h-10c-2.4,0-4-1.6-4-4s1.6-4,4-4h14c2.4,0,4,1.6,4,4v70
	C356.197,144.4,354.597,146,352.197,146z"/>
<path d="M346.197,508h-303.6c-15.2,0-28.4-13.6-28.4-29.2V28c0-15.2,12.8-28,28.4-28h303.2c16,0,28.4,12,28.4,27.2l0.4,116.4
	c0,2.4-1.6,4-4,4l0,0c-2.4,0-4-1.6-4-4l-0.4-116.4c0-10.8-8.8-19.2-20.4-19.2h-303.2c-11.2,0-20.4,8.8-20.4,20v450.8
	c0,11.2,9.6,21.2,20.4,21.2h303.6c2.4,0,4,1.6,4,4S348.597,508,346.197,508z"/>
<path d="M192.597,490.4c-4.4,0-8.8-1.2-12.4-3.6c-5.6-3.2-9.2-8.8-10.8-14.8c-1.6-6.4-0.4-12.8,2.8-18c3.2-5.6,8.8-9.2,14.8-10.8
	c3.6-0.8,7.2-0.8,10.4,0c2,0.4,3.6,2.4,3.2,4.8s-2.4,3.6-4.8,3.2c-2.4-0.4-4.8-0.4-7.2,0c-4,0.8-7.6,3.6-10,7.2s-2.8,8-2,12
	s3.6,7.6,7.2,10c3.6,2.4,8,2.8,12,2s7.6-3.6,10-7.2s2.8-8,2-12c-0.4-2,0.8-4.4,2.8-4.8s4.4,0.8,4.8,2.8c1.6,6.4,0.4,12.8-2.8,18
	c-3.2,5.6-8.8,9.2-14.8,10.8C196.197,490,194.197,490.4,192.597,490.4z"/>
<path d="M222.197,44h-56c-2.4,0-4-1.6-4-4s1.6-4,4-4h56c2.4,0,4,1.6,4,4S224.597,44,222.197,44z"/>
<path d="M150.197,42c-1.2,0-2-0.4-2.8-1.2c-0.8-0.8-1.2-1.6-1.2-2.8c0-1.2,0.4-2,1.2-2.8c1.6-1.6,4-1.6,5.6,0c0.8,0.8,1.2,2,1.2,2.8
	c0,1.2-0.4,2-1.2,2.8C152.197,41.6,150.997,42,150.197,42z"/>
<path d="M174.197,214c-1.2,0-2-0.4-2.8-1.2L36.597,78c-1.6-1.6-1.6-4,0-5.6s4-1.6,5.6,0l134.8,134.8c1.6,1.6,1.6,4,0,5.6
	C176.197,213.6,174.997,214,174.197,214z"/>
<path d="M234.197,274c-1.2,0-2-0.4-2.8-1.2l-40-40c-1.6-1.6-1.6-4,0-5.6s4-1.6,5.6,0l40,40c1.6,1.6,1.6,4,0,5.6
	C236.197,273.6,234.997,274,234.197,274z"/>
<path d="M275.397,354.8c-1.2,0-2-0.4-2.8-1.2l-121.2-117.2c-1.6-1.6-1.6-4,0-5.6s4-1.6,5.6,0l121.2,117.2c1.6,1.6,1.6,4,0,5.6
	C277.397,354.4,276.197,354.8,275.397,354.8z"/>
<path d="M454.197,508h-141.6c-21.6,0-40.8-19.6-40.8-41.6V178c0-20.8,18.8-38,41.6-38h140.4c22,0,40,17.6,40,39.6v287.6
	C494.197,489.2,475.797,508,454.197,508z M313.797,148c-18.8,0-33.6,13.6-33.6,30v288.4c0,17.6,15.6,33.6,32.8,33.6h141.6
	c17.2,0,31.6-15.2,31.6-32.8l0,0V179.6c0-17.2-14.4-31.6-32-31.6H313.797z"/>
<path d="M468.197,448h-172c-2.4,0-4-1.6-4-4V200c0-2.4,1.6-4,4-4h134c2.4,0,4,1.6,4,4s-1.6,4-4,4h-130v236h164V204h-6
	c-2.4,0-4-1.6-4-4s1.6-4,4-4h10c2.4,0,4,1.6,4,4v244C472.197,446.4,470.597,448,468.197,448z"/>
<path d="M402.197,176h-36c-2.4,0-4-1.6-4-4s1.6-4,4-4h36c2.4,0,4,1.6,4,4S404.597,176,402.197,176z"/>
<path d="M346.197,174.4c-1.2,0-2-0.4-2.8-1.2c-0.8-0.8-1.2-2-1.2-2.8c0-1.2,0.4-2,1.2-2.8c1.6-1.6,4-1.6,5.6,0
	c0.8,0.8,1.2,2,1.2,2.8c0,1.2-0.4,2-1.2,2.8C348.197,174,346.997,174.4,346.197,174.4z"/>
<path d="M371.397,273.2c-1.2,0-2-0.4-2.8-1.2l-67.6-67.6c-1.6-1.6-1.6-4,0-5.6s4-1.6,5.6,0l67.6,67.6c1.6,1.6,1.6,4,0,5.6
	C373.397,272.8,372.597,273.2,371.397,273.2z"/>
<path d="M414.997,312.8c-1.2,0-2-0.4-2.8-1.2l-23.6-23.6c-1.6-1.6-1.6-4,0-5.6s4-1.6,5.6,0l23.6,23.6c1.6,1.6,1.6,4,0,5.6
	C416.997,312.4,415.797,312.8,414.997,312.8z"/>
<path d="M433.397,378.4c-1.2,0-2-0.4-2.8-1.2l-84.4-84.4c-1.6-1.6-1.6-4,0-5.6s4-1.6,5.6,0l84.4,84.4c1.6,1.6,1.6,4,0,5.6
	C435.397,378,434.197,378.4,433.397,378.4z"/>
<path d="M466.197,411.2c-1.2,0-2-0.4-2.8-1.2l-14.8-14.8c-1.6-1.6-1.6-4,0-5.6s4-1.6,5.6,0l14.8,14.8c1.6,1.6,1.6,4,0,5.6
	C468.197,410.8,467.397,411.2,466.197,411.2z"/>
<path d="M384.197,494c-12,0-22-9.6-22-22s9.6-22,22-22c2.4,0,4.4,0.4,6.4,0.8c2,0.8,3.2,2.8,2.8,5.2c-0.8,2-2.8,3.2-5.2,2.8
	c-1.2-0.4-2.8-0.8-4-0.8c-7.6,0-14,6-14,14c0,7.6,6.4,14,14,14s14-6,14-14c0-1.2,0-2.8-0.4-4c-0.8-2,0.4-4.4,2.8-4.8
	c2-0.8,4.4,0.4,4.8,2.8c0.4,2,0.8,4,0.8,6C406.197,484.4,396.197,494,384.197,494z"/>
</svg>