<?xml version="1.0" encoding="iso-8859-1"?>
<!-- Uploaded to: SVG Repo, www.svgrepo.com, Generator: SVG Repo Mixer Tools -->
<svg height="800px" width="800px" version="1.1" id="Layer_1" xmlns="http://www.w3.org/2000/svg" xmlns:xlink="http://www.w3.org/1999/xlink" 
	 viewBox="0 0 512 512" xml:space="preserve">
<path style="fill:#27467A;" d="M438.468,148.375h-32.681l32.681,277.787l32.681-21.787V181.056
	C471.149,163.082,456.443,148.375,438.468,148.375z"/>
<path style="fill:#367596;" d="M405.787,148.375H73.532c-17.974,0-32.681,14.706-32.681,32.681v223.319l397.617,21.787V181.056
	C438.468,163.082,423.762,148.375,405.787,148.375z"/>
<path style="fill:#B7D9DD;" d="M471.149,426.163l-32.681,76.255h32.681c17.974,0,32.681-14.706,32.681-32.681V447.95
	L471.149,426.163z"/>
<g>
	<path style="fill:#C7E7EB;" d="M471.149,469.737v-43.574L8.17,447.95v21.787c0,17.974,14.706,32.681,32.681,32.681h397.617
		C456.443,502.418,471.149,487.712,471.149,469.737z"/>
	<polygon style="fill:#C7E7EB;" points="471.149,404.375 438.468,404.375 422.684,426.163 471.149,447.95 503.83,447.95 	"/>
</g>
<polygon style="fill:#F0FEFF;" points="40.851,404.375 8.17,447.95 471.149,447.95 438.468,404.375 "/>
<path style="fill:#25BBCC;" d="M333.368,93.227h-13.977v175.658h13.977c24.35-21.475,39.739-52.886,39.739-87.829
	S357.718,114.702,333.368,93.227z"/>
<path style="fill:#50D1DD;" d="M319.391,103.802h-52.338V258.31h52.338c13.085-20.634,21.033-47.678,21.033-77.254
	C340.426,151.481,332.476,124.436,319.391,103.802z"/>
<g>
	<path style="fill:#78E3EC;" d="M319.391,258.31l-63.39,39.852c29.63,0,56.719-11.067,77.366-29.277
		C328.988,265.023,324.313,261.492,319.391,258.31z"/>
	<path style="fill:#78E3EC;" d="M256.001,63.951c0.002,0,63.391,39.852,63.391,39.852c4.922-3.182,9.597-6.713,13.977-10.576
		C312.72,75.018,285.631,63.951,256.001,63.951z"/>
</g>
<g>
	<path style="fill:#A0F6FA;" d="M256.003,63.951l32.837,53.859c10.928-3.198,21.194-7.958,30.551-14.008
		C303.908,79.387,281.232,63.952,256.003,63.951z"/>
	<path style="fill:#A0F6FA;" d="M288.84,244.303l-32.839,53.859c25.231,0,47.907-15.436,63.391-39.852
		C310.033,252.26,299.768,247.501,288.84,244.303z"/>
	<path style="fill:#A0F6FA;" d="M223.163,99.44l-44.536-6.209c-24.348,21.473-39.733,52.885-39.733,87.824
		s15.384,66.351,39.733,87.824l44.536-6.209l21.355-81.616L223.163,99.44z"/>
</g>
<path style="fill:#78E3EC;" d="M288.844,117.81h-65.68c-3.922,18.25-6.2,39.963-6.2,63.246s2.278,44.996,6.2,63.246h65.68
	c3.922-18.25,6.191-39.963,6.191-63.246S292.766,136.06,288.844,117.81z"/>
<g>
	<path style="fill:#F0FEFF;" d="M178.627,93.232c12.703,11.205,27.857,19.711,44.536,24.578l32.836-53.859
		C226.369,63.951,199.274,75.019,178.627,93.232z"/>
	<path style="fill:#F0FEFF;" d="M223.163,244.303c-16.679,4.868-31.834,13.373-44.536,24.578
		c20.648,18.213,47.742,29.281,77.372,29.281L223.163,244.303z"/>
</g>
<g>
	<path style="fill:#D0FBFD;" d="M255.999,63.951c13.768,0,25.892,21.483,32.844,53.859c-10.425,3.059-21.446,4.693-32.844,4.693
		c-11.398,0-22.42-1.635-32.836-4.693C230.117,85.434,242.24,63.951,255.999,63.951z"/>
	<path style="fill:#D0FBFD;" d="M288.844,244.303c-6.953,32.376-19.077,53.859-32.844,53.859c-13.759,0-25.882-21.483-32.836-53.859
		c10.415-3.059,21.438-4.693,32.836-4.693C267.398,239.61,278.419,241.244,288.844,244.303z"/>
</g>
<path d="M510.366,443.048l-31.047-41.396V181.056c0-22.526-18.325-40.851-40.851-40.851h-7.486
	c-5.996-25.873-17.762-50.667-35.314-72.3h12.467c4.512,0,8.17-3.657,8.17-8.17s-3.658-8.17-8.17-8.17h-30.813
	c-4.512,0-8.17,3.657-8.17,8.17v30.812c0,4.513,3.658,8.17,8.17,8.17c4.512,0,8.17-3.657,8.17-8.17V81.38
	c13.756,17.845,23.309,37.904,28.675,58.826h-39.737c-16.977-49.08-63.651-84.424-118.43-84.424
	c-54.78,0-101.453,35.344-118.431,84.424H97.833c7.024-27.385,21.224-53.294,42.623-74.692
	c53.252-53.253,135.48-63.276,199.965-24.372c3.865,2.333,8.886,1.089,11.216-2.776c2.331-3.864,1.088-8.885-2.776-11.216
	C315.092,6.777,274.769-1.949,235.317,2.581c-40.677,4.67-77.474,22.436-106.415,51.376c-24.6,24.601-40.553,54.618-47.883,86.248
	h-7.487c-22.526,0-40.851,18.325-40.851,40.851v190.638c0,4.513,3.658,8.17,8.17,8.17s8.17-3.657,8.17-8.17V181.056
	c0-13.515,10.995-24.511,24.511-24.511h4.484c-6.549,47.974,6.219,98.101,38.318,137.662h-12.467c-4.512,0-8.17,3.657-8.17,8.17
	c0,4.513,3.658,8.17,8.17,8.17h30.811c4.512,0,8.17-3.657,8.17-8.17v-30.812c0-4.513-3.658-8.17-8.17-8.17
	c-4.512,0-8.17,3.657-8.17,8.17v9.167c-27.805-36.069-38.466-81.179-31.993-124.187h38.624c-1.58,7.929-2.414,16.124-2.414,24.511
	c0,69.078,56.198,125.275,125.277,125.275c69.078,0,125.275-56.198,125.275-125.275c0-8.387-0.834-16.581-2.414-24.511h38.624
	c7.461,49.581-7.847,101.96-45.942,140.054c-53.251,53.253-135.482,63.273-199.965,24.372c-3.862-2.33-8.886-1.088-11.216,2.776
	c-2.331,3.864-1.088,8.885,2.776,11.216c27.938,16.855,60.362,25.736,93.067,25.736c6.826,0,13.665-0.387,20.477-1.169
	c40.677-4.67,77.475-22.436,106.415-51.375c41.277-41.277,58.232-97.8,50.886-151.61h4.483c13.516,0,24.511,10.996,24.511,24.511
	v215.149H40.851c-2.572,0-4.993,1.21-6.536,3.268L1.634,443.048C0.573,444.462,0,446.182,0,447.95v21.787
	c0,22.526,18.325,40.851,40.851,40.851h430.298c22.526,0,40.851-18.325,40.851-40.851V447.95
	C512,446.182,511.427,444.462,510.366,443.048z M320.364,93.227c-7.903,5.803-16.509,10.479-25.575,13.943
	c-3.182-12.356-7.254-23.233-12.198-31.759C296.416,78.891,309.197,85.02,320.364,93.227z M236.163,100.873
	c7.074-21.221,15.108-28.752,19.838-28.752c4.73,0,12.764,7.53,19.838,28.752c1.156,3.469,2.219,7.144,3.203,10.969
	c-7.521,1.632-15.237,2.492-23.041,2.492c-7.804,0-15.521-0.861-23.041-2.492C233.944,108.017,235.007,104.341,236.163,100.873z
	 M256.001,130.673c8.97,0,17.845-0.971,26.489-2.844c2.443,13.82,3.897,29.104,4.269,45.057h-61.517
	c0.373-15.952,1.826-31.237,4.269-45.057C238.156,129.703,247.031,130.673,256.001,130.673z M229.41,75.41
	c-4.945,8.526-9.016,19.404-12.198,31.759c-9.066-3.464-17.672-8.14-25.575-13.942C202.805,85.02,215.586,78.891,229.41,75.41z
	 M178.959,104.114c10.558,8.253,22.294,14.706,34.746,19.184c-2.809,15.49-4.425,32.461-4.815,49.589h-61.52
	C149.365,146.127,161.066,122.029,178.959,104.114z M147.371,189.227h61.52c0.39,17.128,2.006,34.099,4.815,49.588
	c-12.452,4.477-24.189,10.932-34.746,19.185C161.066,240.083,149.365,215.986,147.371,189.227z M191.637,268.886
	c7.903-5.803,16.509-10.479,25.575-13.943c3.182,12.356,7.254,23.233,12.198,31.76C215.586,283.222,202.805,277.092,191.637,268.886
	z M275.839,261.241c-7.074,21.221-15.108,28.752-19.838,28.752c-4.73,0-12.764-7.53-19.838-28.752
	c-1.157-3.47-2.219-7.145-3.203-10.969c7.521-1.632,15.238-2.492,23.041-2.492c7.804,0,15.521,0.861,23.041,2.492
	C278.058,254.096,276.995,257.771,275.839,261.241z M256.001,231.438c-8.97,0-17.845,0.971-26.489,2.844
	c-2.443-13.82-3.897-29.104-4.269-45.056h61.517c-0.373,15.952-1.826,31.236-4.269,45.056
	C273.846,232.409,264.971,231.438,256.001,231.438z M282.592,286.704c4.945-8.526,9.016-19.404,12.198-31.759
	c9.065,3.464,17.672,8.14,25.574,13.943C309.197,277.092,296.416,283.222,282.592,286.704z M333.043,257.999
	c-10.558-8.253-22.294-14.706-34.746-19.185c2.809-15.49,4.425-32.461,4.815-49.589h61.52
	C362.637,215.986,350.935,240.085,333.043,257.999z M303.112,172.886c-0.39-17.128-2.006-34.099-4.815-49.589
	c12.452-4.477,24.188-10.931,34.746-19.184c17.893,17.916,29.595,42.013,31.588,68.772H303.112z M44.936,412.546h422.128
	l20.426,27.234H24.511L44.936,412.546z M495.66,469.737c0,13.515-10.995,24.511-24.511,24.511H40.851
	c-13.516,0-24.511-10.996-24.511-24.511v-14.092c0.853,0.302,1.767,0.475,2.723,0.475H247.83v13.617c0,4.513,3.658,8.17,8.17,8.17
	s8.17-3.657,8.17-8.17V456.12h228.766c0.956,0,1.87-0.173,2.723-0.475V469.737z"/>
</svg>